<mxfile host="app.diagrams.net" modified="2024-05-15T15:27:35.609Z" agent="Mozilla/5.0 (Windows NT 10.0; Win64; x64) AppleWebKit/537.36 (KHTML, like Gecko) Chrome/124.0.0.0 Safari/537.36" etag="3jG3HGR0ERNlHNUpLzYy" version="24.3.1" type="device">
  <diagram name="Page-1" id="j8lz9UvmQPoJPd7gl8pN">
    <mxGraphModel dx="989" dy="521" grid="1" gridSize="10" guides="1" tooltips="1" connect="1" arrows="1" fold="1" page="1" pageScale="1" pageWidth="850" pageHeight="1100" math="0" shadow="0">
      <root>
        <mxCell id="0" />
        <mxCell id="1" parent="0" />
        <mxCell id="tRmzfT7c8AYAd1QJYqpU-11" style="edgeStyle=orthogonalEdgeStyle;rounded=0;orthogonalLoop=1;jettySize=auto;html=1;entryX=0;entryY=0.5;entryDx=0;entryDy=0;" parent="1" source="tRmzfT7c8AYAd1QJYqpU-1" target="tRmzfT7c8AYAd1QJYqpU-10" edge="1">
          <mxGeometry relative="1" as="geometry" />
        </mxCell>
        <mxCell id="tRmzfT7c8AYAd1QJYqpU-12" style="edgeStyle=orthogonalEdgeStyle;rounded=0;orthogonalLoop=1;jettySize=auto;html=1;entryX=0;entryY=0.5;entryDx=0;entryDy=0;" parent="1" source="tRmzfT7c8AYAd1QJYqpU-1" target="tRmzfT7c8AYAd1QJYqpU-5" edge="1">
          <mxGeometry relative="1" as="geometry">
            <Array as="points">
              <mxPoint x="90" y="90" />
              <mxPoint x="90" y="160" />
            </Array>
          </mxGeometry>
        </mxCell>
        <mxCell id="tRmzfT7c8AYAd1QJYqpU-13" style="edgeStyle=orthogonalEdgeStyle;rounded=0;orthogonalLoop=1;jettySize=auto;html=1;entryX=0;entryY=0.5;entryDx=0;entryDy=0;exitX=1;exitY=0.5;exitDx=0;exitDy=0;" parent="1" source="tRmzfT7c8AYAd1QJYqpU-1" target="tRmzfT7c8AYAd1QJYqpU-6" edge="1">
          <mxGeometry relative="1" as="geometry">
            <mxPoint x="89.99999999999989" y="150" as="sourcePoint" />
            <mxPoint x="60" y="220" as="targetPoint" />
            <Array as="points">
              <mxPoint x="90" y="90" />
              <mxPoint x="90" y="230" />
            </Array>
          </mxGeometry>
        </mxCell>
        <mxCell id="tRmzfT7c8AYAd1QJYqpU-1" value="Entry 0" style="text;html=1;align=center;verticalAlign=middle;whiteSpace=wrap;rounded=0;" parent="1" vertex="1">
          <mxGeometry y="80" width="60" height="20" as="geometry" />
        </mxCell>
        <mxCell id="tRmzfT7c8AYAd1QJYqpU-2" value="Entry N" style="text;html=1;align=center;verticalAlign=middle;whiteSpace=wrap;rounded=0;" parent="1" vertex="1">
          <mxGeometry y="220" width="60" height="20" as="geometry" />
        </mxCell>
        <mxCell id="tRmzfT7c8AYAd1QJYqpU-3" value="" style="endArrow=none;dashed=1;html=1;dashPattern=1 3;strokeWidth=2;rounded=0;entryX=0.5;entryY=1;entryDx=0;entryDy=0;exitX=0.5;exitY=0;exitDx=0;exitDy=0;" parent="1" source="tRmzfT7c8AYAd1QJYqpU-2" target="tRmzfT7c8AYAd1QJYqpU-1" edge="1">
          <mxGeometry width="50" height="50" relative="1" as="geometry">
            <mxPoint x="160" y="200" as="sourcePoint" />
            <mxPoint x="210" y="150" as="targetPoint" />
          </mxGeometry>
        </mxCell>
        <mxCell id="uH0Ve5aKy0lYgf-GEaph-4" style="edgeStyle=orthogonalEdgeStyle;rounded=0;orthogonalLoop=1;jettySize=auto;html=1;entryX=0;entryY=0.5;entryDx=0;entryDy=0;" edge="1" parent="1" source="tRmzfT7c8AYAd1QJYqpU-6" target="uH0Ve5aKy0lYgf-GEaph-2">
          <mxGeometry relative="1" as="geometry" />
        </mxCell>
        <mxCell id="tRmzfT7c8AYAd1QJYqpU-6" value="Image Labels&lt;div&gt;Confidence Values&lt;/div&gt;" style="text;html=1;align=center;verticalAlign=middle;whiteSpace=wrap;rounded=0;" parent="1" vertex="1">
          <mxGeometry x="120" y="220" width="110" height="20" as="geometry" />
        </mxCell>
        <mxCell id="tRmzfT7c8AYAd1QJYqpU-7" value="" style="shape=image;verticalLabelPosition=bottom;labelBackgroundColor=default;verticalAlign=top;aspect=fixed;imageAspect=0;image=data:image/jpeg,/9j/4AAQSkZJRgABAQAAAQABAAD/2wBDAAIBAQEBAQIBAQECAgICAgQDAgICAgUEBAMEBgUGBgYFBgYGBwkIBgcJBwYGCAsICQoKCgoKBggLDAsKDAkKCgr/2wBDAQICAgICAgUDAwUKBwYHCgoKCgoKCgoKCgoKCgoKCgoKCgoKCgoKCgoKCgoKCgoKCgoKCgoKCgoKCgoKCgoKCgr/wAARCADqALgDASIAAhEBAxEB/8QAHwAAAQUBAQEBAQEAAAAAAAAAAAECAwQFBgcICQoL/8QAtRAAAgEDAwIEAwUFBAQAAAF9AQIDAAQRBRIhMUEGE1FhByJxFDKBkaEII0KxwRVS0fAkM2JyggkKFhcYGRolJicoKSo0NTY3ODk6Q0RFRkdISUpTVFVWV1hZWmNkZWZnaGlqc3R1dnd4eXqDhIWGh4iJipKTlJWWl5iZmqKjpKWmp6ipqrKztLW2t7i5usLDxMXGx8jJytLT1NXW19jZ2uHi4+Tl5ufo6erx8vP09fb3+Pn6/8QAHwEAAwEBAQEBAQEBAQAAAAAAAAECAwQFBgcICQoL/8QAtREAAgECBAQDBAcFBAQAAQJ3AAECAxEEBSExBhJBUQdhcRMiMoEIFEKRobHBCSMzUvAVYnLRChYkNOEl8RcYGRomJygpKjU2Nzg5OkNERUZHSElKU1RVVldYWVpjZGVmZ2hpanN0dXZ3eHl6goOEhYaHiImKkpOUlZaXmJmaoqOkpaanqKmqsrO0tba3uLm6wsPExcbHyMnK0tPU1dbX2Nna4uPk5ebn6Onq8vP09fb3+Pn6/9oADAMBAAIRAxEAPwD8i/h/ovlX6SpZtdXsjAW9sGIVBwdzHIA9c8YH1yPVdG0i302GPVdUP2hlTZbBBgMeu2JewzuO8jPUjnmsv4eeD00qzD30DJPOgM0feJOMR/7x4zz39az/AIu/EBtNt202ww1xNF+8O7hI/T8cAfQcda8GvNzlyo+lw9NQhzsx/if8TZJL46fYPHPOn+qiQ/uIQO5z1AGffj8K4/SfHuoNdtDbxS3txyAINqpFx1UGM9up447isDzZNa1J7IXJCD5rq4YfM57Lkg4Gf89K6vR5ltrIWuk28Sc/PPJKAqn6/IWxycDJNb06ShFORw1q8pzdjcsdV8VSWo+2zxXJZSXsrqEswGOeVyDgc57fhU62t1fsg02Axkrh7WVGZG6DAzyPXkd+tUfCPhO68SXglmv5ppGBAVUCx4HX5mbAP04GK+gvg58HLnxDLFaX0cMQxmF5diqVJGdgcDzD6hc9RSnOMFdhCNSTsePaN4C8QazN/Z8NkZApyLd85jJzjp0/MfjXS6Z+z949tbdb6fwjeNaT/fkjg3gsMfLuJwCCy5BxwynjOT+ln7PP7AvhzxBZpqt/aS+WYUS1uo2XYACSyFCm+Pd2bhc5HfK/Wnww/ZG0fw9ALe+0WyZGh4kghQNKm3jzAAAzDJ4IOQepNZRxuHhuy5YWvJ6I/F3wZ+x/4+1RQmkeFZjKTmS3kj+dV652EbgRnLDGRjIyvX0vQv2HviHpBa4m0ORPmP2iOTcy9AfvLkFSMfMCMZJIGK/Xv/hl/wAD6Eyy6HpEcWIyWt1OxJWxwcEHY24k/LgZzkEYAdrvwi0qaFozaqzHco3NtD564wTyCSc5HU+ua8/FZpFP3Eelg8tnf3z8n4f2Y/El5pj3klhKFtYCktnKxW4t1yu2QZO5QNwwxBTLbSctg8N4z+FN74hil0/VbCG11KNdl5HHhWuGAP76Jecvjl0GVkB3KAQ7V+sHjb4HaRqgF7pyfZruMkQXUUIDcIVKjjBXGQVIwVbuOD8+fFv4CXOoPIdd0GKa4hfKSWxJlhUcgxOP3g5+YKQwBBGeA1eJLM6kZXZ7kcsp1IWR8HeEvhNrOgWgttTtZb+1a5BtJooiGiy2FkRgdyncW+Rl2kn5gCVx2mifD6dpbl5fMtbkKPlhQxzRjduwN23I3cjGAcgHaQa9+0P4AXckkltqN15qvKdz6hpkbOAeAHY5WRsD7+GJOeQeBLP8FdN0ux2RzteBXBRJsLnGc7QANp9P/rVz18zlUO3C5TCDufO/jXwNquqWi6dqdq0gB5uUl5lAXHyDH7s56gYB4wAwGfJfE3w9h0y0+xXaA+aT5Ui5KqCOjccHP4YPbGT9l674Re704LEFaRflkTaT06jpncM59ck9sg+b+I/hzCxuIDbCacFhMJj8rnnGVP3z6EjkdCDmlhsxcd2PFZUp6pHxT4z+HGYpJDBwxYl9obGTwqnbz9R1znqa881jwjqOnHesCRouSd/Vj+VfY/jX4XWcaeXFpSAYClyzgYHqp/Hj26dK8U+I/g4R3DIbRUfccBVGM88g96+mweYKofLYzLZU1c8GkF4IyPMt2IzlW6/lnNUJnSLarRJHu67xjA9vSun8T6dJA7N5hQleXXkntXKX1mschZ4g7E8MGOfx5xXtU5c2p4FSPI7DVntccQByejDDfpWjp900ZWOaBXjY8kA8fnWG8sCvhwiYOcBcZ/nS29yYnE9tLkKcuhNauDa0JjOzO4s7NbSLdG5ltJehJ5RvWipPAF2mqQG1258wElPQjk/pRXI5uLsztUVKKaPbbjU49K0Z725JEmdzIeSGI4HPXAOPx9hXhXxA124uLm5nmbLl8yDj5nP3V47Dv716t4u1BXtIojIoSFDK4J/iOSM/TgfhXg/jS5EioJXBMjtI+D15JFYYeHNO7OrET5YWK2hQ+dKtzfTFowTwcKhPHqCT+Az716Po11ax2cD3B+y2u0geXGFeTnPyrxn6kEnp9fMdBklnuAbGFQy8LJImdo79/wBf516L4KhknuEe4DX9w2Nqtkqg56AcH/634V21nyLU8ulFzdl1PXvgz4Vn8XXEKLZR26khd0xZyoyACqAAD33euRgjn9F/2M/2dPDqRWst9CdXaYEmW+aAQw4IxtRj1HAyCTx65r5O/ZO+GE+u6kgS2nuZZHCtFpw8zcSBw2zO0YJ7YPAPbH6hfs5fDpNPsbV7hPIjULmB7MRsuR2C4AHTsfYDNfH5lmUnV5In2WXZZGNPnke+/B/wLomn2sU8VmkLYBCpCE29AewK9umM55BNepQafBZWYiRTJGItoZsgD6c1yPhGU6bZrbRbHXaNoGAMjnoPfPXk10f9rRPH5a7ATwFZtuMHr9e/41zKvdG08PaQl1apEuyE5CkcDvWFq0FrKruVwxYksOOxAArUvL6NnDqNxH3Qwzgg9qxNSvjIhDrhemWHPrxisKlS6OijSszltftYbhN5RAzAjPTcPfg4I4rzLxxpcE5VLiJWKuWUkcD2Gc+nt0HXivTtcuAA2QiEk4wxx06kVwHiiTcAVALbsnv2ArzqrvsexQgkeXato8G8NCwBBycY5yT+A68AACuZv9PBO14im48gNx6Z+uK7XXvLX95tA5JwT79f/r/SuY1mRY13AEdfmGCcnoDntmuNtnpQSOC1vTrVHLxsFMuQV6h25+b8Pbr04rh/EGlPbygIkaoW4yD8rY5I+v6Hn1r0jXGidpHCqAcHA7fTvXHeIFcxyRmMMX++4A+Yep9P/rVMZNSKnGNjyPxpotvPZyJNEu4hssO5B45zxXhHxR8KmYSRRgM3zbH5JU+vt6V9H+LoUgB3YIz8iNn5a8k8faekySeT1YEHn73XP0zivYwNeUJHi4/DxnF6Hx/8RtCeCaYTL8y5DeprzLULNWkKE5K5O3qTX0j8TvDf2negjZX5++OmeefUda8P8XeHvs07LJAQNx+52r7nBV41II/PcfhnTqXRxd0GhxEINqnr8wqpC/lz7VPU859KvXiqq7I1GfVwcgVntE/mbd24noAK9mOx47vc7P4bXT6fqpfzP9SwkHPYEE/pgUVV8C4F3ckk8WLt078CivPrr94enhn+7PSvGOoyPYXUzNncME574/wIFeO+MrgebGV5KxgnPfrXoniy/caW8W75pQT/ACFeb+K187Ulhjy2xMEY96WEVtWVjXeNkP8AC8Jv7mKOVMJuHCkjr34NfVf7NXwNfxctvLBZbwxHlxqjM0vY4Aye4yenFeK/s+/DMeJNahS8ilaLf8zhAR6gDg/nX6ffsp/AjT10q1WPTYSrAFI0+cxdDgkAAfQnIOa8zO8fChHlT1PSyLLniKnNJHqH7JHwK0nwtp9tHFpEdt5TlWEFrJEZOuTv2JkbieAcdDzzX2H4B0s2tvHHDalY1UAk3DOwGOvJyOvTkZ/KuC+Gfh240+1SFIsKFHlMrq3T2I4HI71654X0RCqrFGpJXkscEDIOcHg9+nHHPSvz9VKlWreTPvHShRp2Oq0KQqodVYkdM/U1tJcsICGBLdcbc7Qe/PTpVPS9LkSIAoQuOQTnafY5FaY0yYRecSGyMplevqK9OnTm0eZOcbmbe3ZUkW5IGMkEZHPfj8axdRu5Nm7JI+bH5V0V3pxUEqCzdSu3oPx+v6VjajZMgPAXnbkHk9Bn079KJU5WKpzjc4/XrtjLv3nJ4BAzzn2rj/EUjyLIA4OVyw+g/wARXda3p5w43/ex16seuP8A69cVrkMgB3/KxJHXr/h161yTi0ehSmmcJrK5DOVUnGCAfXqP5VyWtNsV2UsSpJ4HB9v1rttahRdxRWJUFvXn69643WQZ8vtOw/dHU59On1rncdDuhI4jXJ0MW6M4HOzYc4/CuR10bmOxlLDcS3Y8+g79K7jUrJnIKMoySSox0I61yet6XIPmXJLDOcDH5/mPrWajqaOZ5x4lJEbuBvwdoOMnJBB/HpXmfjCBZDI7ghi5ySwGff8AT/Jr1zxZo9xHuQpxjqG9O34+tec+J9GlRjK3Xb93rx1/lXZQbUjhxHvRseKeNtIa5R0WFSepJ5z/APXryPxf4VinkeNgVPIwf0r37xVoz7S7JzkkA8gk8V514m0ZyrQrHuHTK89D619Fg8TKB8xjsKp30Pm/xj4TeyZniUAc9M1xkqeVJ8rMNp+Zs9K9y8beHRLblAGwCeT9K8m8Q+Hp7SeR41JXPTHWvqsJiVVVmfIYvCOnO6JPCc/lwX1wZDu+yFVz6s6iiqumqIbGRjxmRAQPxorWpG8hUZOMDp/El1JPGY0yxJEcYPHJIqzbfC2ZJIru9G9nADBkBGcfnU3hfSf+Eg8V6dpeCQ1xnHXOPm5/KvY9d0eCy1a2sjACqYzxwT61wTr+xVkehDD+2lqd3+yV8MYEuraYWasCwKxyJweBjpzjj+dfpP8AAjw/Omlw2ktrC0aAMEjRgi7TjcNzYIHUn3r4n/Zkfw1pEcUutzQ28IZSZmUfJnjAJ9s9jxX0Trn7fvwZ+Gtta2vhljrFwsZED2qKoEy5xGTIAVJAJyN4744FfGZlOvjcRywi2fb5ZQoYTC81SSjfu7H294L0eBokiEBxztQfe+qn0Bwc89a9O8L6FIP9I25LkZEhHXpg8deMY4Nfn94C/wCCrfw+tLNFvtFvbbfLGHWMKnlyPztZCFKsp2qCuFdiyqWwDX0L8If+Cn/wE1fRYrjWfEtqiFjBcbn2S2mwgFJ0+8oOUKvjy23BQ24MBlSwtSj/ABINfIdepGsv3M1L5n1np+hIICkMbNngoxwR04API4P161Yk0lIv3p+6emBwAOgHTI/GuE0z9qP4T3umRa3ZeKrOTTZolZb6OUNGgJA2uQeFJGA/3eQO9b83xe8LSxLeWOpQyxytuRYXUhgT94HnOPSuz2tBaXPN+r4lu/KaV7bW6xiSQJhiclBnt37+vH/1q5rV0t4pGcuAQMbQOvQggU+7+ImiX1q01hqKSIQQp352t16fTNchr3jFN+17rvkMWOSoHT2rmq4iB1UMNVvqiHxJdW6l4WbkcnaMZ/zxXB65KCruFBy/ykDPbr+f51oa34kZ49yyEnndyeh/ya5jUtREpdC3BGQ+eQMg4/PArhqTUj1KVJwMrUow7HA2DBfZkk88g/8A1vesHU9NExJj44A3BQSzf0x/St25k3jyVO5jwFYZBIHOR1qlMwdvMIAx8xBOM4zgdPc1COlbHF6rowJI2lckbB02/lWHrmgSTBHIKhGB3qeOoyTntzXZandQxz7Wm5IJXd0xwCTx04I/EVyHirxt4f8ADts/2y5XzEQjYzDPAJ3cdMDPJ7D607IbucV4m0FPJdvs+MgFmCkZO3pjjA6/zrzDxZpltEzMqofmy2Tgt0ByRW98SP2kPAem7ru61NGRUO5VPJXHHGMZPGPXmvn34l/tpeFLWWW3063WRiSS7E/L7e/GeP8ACt6OHr1ZWhE5q9ejSjebsaPje0to2dI1DyMWO3OeeDzjoACOvp0PSvNfEVlG8knmFclucsVHHHf6fliuP8ZftkxTxSR2WmrJKz5OScHrjn0GRj6Zry3W/j/4z1K6e8efy1POxRgHGOP84r3sJleNkrtHzOKzXBRdk7ndeMoYpA5MQycgBXOB2/xrz3VtDimmZfKXYT1JHpTLv45R3QEGq6cwkA/eSo3Xv0NWNM13TddgL2U465bJ+ZD7jtXr0qOIoR95HkVa2GxEvdZyfiXwxJoum/bY0ASSUK3t8pNFeieK9Bj134dXckSgyRwGVcLzlBu/UZor06dRyjdnl1KdpaFP4CWCXPxM0+OZhtWCVgx6Z2//AF69O+JuoafpWuvdapehILdMMynl+2FA6nkfkfSvNvgGiz/GayVPuwQStgHjiPAz7V3nifwTcfEfxytk9zIlvG/zGFsMT1xnB78duvWvKxCg8SuZ2Vj1sLKSoycFd3OcvviHr/jyNtGt7m+gsCSLew0+Au0rAggMd6dcNxz0HHOa3vD3hHxdq+lQpa6S+pWkijaBBs+1Mp2kKSAVlRsAoect0bjP1X+zJ+xd4CXTotYudGkupHbaEuvNkZGwMlnChcHBHbr7k19Qv8NfB+j6P9j8SLZx21sITMrM211UqijBbBIRFQZ6IoXooAlZrgMNG1NXNnkuaYyXNOX3n5YsNc0q7I1C1vriOJCrSm2/f2y4G4Mhyu0E/KCSMs+cHNbWpfEFtFnS7g1dUu7WbOn31hJIkkagMVKl9jsuTlc4ZRtGRg19yfGdvhBe2cdnLo1qkWmS+bbO0cY2H5iTGNq+Wu53PGCSSSSc5+YPHlt8CtQM9vfrFGFmlkikSQKVLkHIJPONp5bqSSRk5rannOCrfFF/dc56nD+a0HeMkcXoX7UPxY+HOrJrfw18bXNjPJOxvbJZQbWdiFSVhC2YyrDaGQqQQqHnovXeHP8AgpD8dvCupQXmja/JpUHm7L+1g3SWLRlQpkMDt8j/ACBt8brnaRgdR5b4j+GPhaeUS+HvGMMoxmOO7O3KgZ689+vH8R61nL8GfHyRLqOnSWt2fM3L5Mw+bv1IHsT+QHWtpUsprxu0vyOeNTPcG+W7/Q+5fhp/wVvvLueKPxdZtZ3zRxrHPb3P7iYHCkbz7gsruAUO5XwVO73r4a/8FB/BHjFIdO8QassM8ibRNKQqvIF3KjAk+UzDkfwkg8naa/JG/wDAvjDSh/pnh2eOMMN/lodqEt/C3QEYGMHnjriui+H+vaxFCmkXM7xDcI4ZzIQYmLcKSMAKfkzz8pGexz5eKyDAVFzUZWZ62D4ix0LRxEdD9ntP+IGk65mO1vizD5mKkZ254YYPI6/lSyas5UNK5B3kozjdvP8AT/69fFH7HXxh8QXk6eH9WvWV1PmW5lf7mWAeLHpuO8ezEc7cD6/0W8mu7VbiFTkkAZHQkdfpyTXx+Jw08JV5JO59lhcXTxdLngrGvJqhxv3+XgYVSRjrn8+CK5zxv4707w3ZrcXrhVaVI1G7qXlCDPsCwpuqai1krkT4XLMhJ4455688HtXyt+2Z8bbjSJ0trG/fY0kPRsbXRxL+pUVNCE8RNQj1Lr1oYeDmzc+On7Zfh/wm2qXenXRljtNODwtGwHmzMz4VeeMbBz6ntivjz4lfta+OPFer3cYu2RpHKjacCKMMxOOeW2jj0Y/Q15v458calehrC8vnmVVjDMz5ONrEfoxNcrjWtUDi2t3d5vneTJAY7snnoea+1wGSYelDmq6s+KzLiGvOXJR0LXij4m69rcxMl84QqQWMnJyOcHt6D2HpXIanqXmkme4aRwfvE8HHQc9P/wBdbq+FtMgk263rqjbyYrZwTwOMsc9j6etaun3Xwq0h122du5V+WlTzR/EBgn+nt3r24vDYeNoxPnHDG4yV5S/E4ey0DX9flEej6PPLuG1WjiJ45xz07Vv6X8C/HurlEl0poVJGS/Xnr0P0r1Lw98WPCEUYtbEQIy4HVQe46ev9c12ekeNtP1CNC8kXT5dh9OOa56mZypu0YfeddLJ1L4pHgOsfs2+K47YsdkjbeQgIArirzwx4s8Eagt41uyNG4PcAgdQe2K+w5ZrS4QyBgWYfMFOeDjGPeuN8e6NpmoWzie3Vjuznb1FOlmHtfdkgrZZ7H3os5f4b3Ca74aSQoCs8R+Q8jkYIP40VP4Gs49Ihe0gTCBm2AdOTRWkXHoc8nJHLfs1KG8c32qNysWnuAV65Z0x+gIr6J+C3hO4v9fXUZIi3mTbjxn6f1rxT9mXQJJI9SuQcGVEjVgDxjJP6kflX3D+zj8KJHijmNqSTwh/kf1FeBmtbkqu3kfTZLQdSnG66ntvw2sLDwz4XjlhOLloA7kELsX3GQcevPU9DyK85+NX7Q/8Awjpu45rl1lRWfEUe8sFJJY4U8Dbk4H5dve/+FezR+H5JbGGZ52gaPZBkyLEV+fav8Rx2JAJ4JrwvxN4H0n4ZzX/xI1PQNSvtVjgE1nd6fC11bNb8MN5TJgb5N2SuCspDBcEH52lTdaqrH1/tqNCjzNankkP7NXxr+Omo23iD4i+JR4U8N3181tL9nKveQyF2iUvnKRkyADo4JbaSpJqx4t+E/wCy5+zr4J0i58YjT5PF9n4/is9Qknf7Ru0tNRbzJ0icsJG+zhCVbcCcepzy2j6B+2b+098S9S+EXguEeH/Dcmo7tVub23kiOkswBZDkoxkZkLiDDECRS+wbduX+2p+wppn7HPx18G/8LG8ZeIfFvh7XPD6XOr6usgFw8+9kufJLhwGQFWUOX5f5iwNfV4bLsS4e0dlBfez5THZ3ho13STbn6nGeNP2gv2dfEkuq6FpPg3T2htZtNtdKaS3kLMn2WVb1xKwLvIHithGrDBdpSNof5eGsJbSPUGn8IeIZLaUjHkvNxJg9HHQsDnJ79eM1Q/bC8M/sweBPjTHpX7InizxFrXhpLW2ujqniDAme5dWeRPlt4BhQYkI2ffSQglSprE8HwXfxA8ZGa9eQfa7obZYiQY2Ygbx9Ae3XGO+R6VXL6MY+6eRSzitVqWnHQ9x+HfxHuWvV0PxTE0dztwrPyH45ZT3/AD74BPNes6J4Z8N6r5T6npUEqFB5Mvl+20YweDhiemOmB1rwLXvDWvfD3WJPBnxHjANrcPDBqsPIilQ7SrbsbefZcZ5A+8PYvg34h1iyuLfRNfUssgDW9xj5ZgT1z68nPevmcbSq4WXNB/cfR4RUMVGzSfY96+DnwUs7HxJba3oNq7NG5eMr0PylWTuQGCg49SccHj650z4aX1tp+2OGQkoY1GzAcgEj+X5ECvL/ANkfR5U1KBzCJYZAAwC52e/6/nX3Ho3w40/UtAYWsALRLvB253cMOB+PT6V40pPGy13R2aYFWWx8OfFqSfQraWRAEySWXB5GOQCPf+XvX5//ALTmuHWtflhnYALKrru7jPf1+tfpV+2X4YfRtKnleHY4Ri7beOR1weB/9avym/aI1xp9dnQT/KrHaR1+8MD+X/1q6MqotYnQyzWsnhfU8w12HSFLXE3zLEVGZB97AAzt+grjdS8Uatr1+dD0CDBP3mQ4wPUn19h+dS65PqPiPVP7G01WAY4d+MBe5P6fnXS+EdOsPDSR6X4fsHu7+bJbyk3OTgk4x0Axkn0XnGOftoJxhrq2fGWUp9l1M/RvhKoAu/EGpkuvLKWIVSM54HPXjJNaF1qfwr0FltnvLcxq7ea8IJK4Dlfujrnb/L0rf+MPwn8b+BfCPhTxz43geLT/ABfbNd2CQyEMbcSKn8Q4cgscdB8uRnIHnPiOx8EaH8UPEGneBNQvNV8L2uuXsWgXupwqs91ZLM6wSyKFUKzRhWYBQMk8DpWvsKjjzSl8hLEQ5uWmi5pni/4ZeJLY2epiCKQpGPPKleSpDHJx0OMfX2rR0m1n0uOK80PWfNVhnyJnyuAzKPp938vrXPfD/wAE6P4v8bwWN3pym1ldhIifKB8pwQR6cHjH9Kn8Y/DDVfhtrTXuiXM8lsG+Xc3zYznkjhv0P0605YeE46Myhipxqanq2geJZJovs9xmOQDDBjyP8e5put3jzExdVA6kda8/8MeMbu6jSa7iluNqgCWJd23GOuBx3rs7ULdWq3cMolDE4YdDXmToujM9anXVeFiPSVET8nGf0oqQRmFgzAUV0RmranHUotyO7/Yw+H8mt6ZEwtiVnm37gAc8lR/IHHtX6R/AT4ZW1nZxSNbIdoVSdg4GMlc/lXyd/wAE6fB0N34LstSjiyzkF3xkZx1/A/1r9Dfhfo8dpbKscI3KQHyQPTJr43MK7ni5LzPuMpwqhg1LrY63QvAlu9obaJSuEG5gxBHA7/j/AJ4rzn40fs4WHivSkey1i90jymZoGtLe3kAdiHLqJYpDG+7JDLgjO4/MAR734atS8SEryTjeBnoc/wBevvxWprHgPRfEVv5Op6cJQ6bSpAztOCcjkdgfw96wpc0WpRFipSi9dj83Ztc8UfAnVZfCvw80Szls9Ijkub+3hMmIYA2XlmmbJa4lbdIS28u2RgKoK9L+1dN4A/aU+AX/AArv4katbaT4k0RodS0fVJW8wWUky7fJk8vJKyJt3ouXXAYrlNtfTHxJ/Zfhg0qSz8I6dbR2fmSSPaxQ7Fywx0AIxy2B05PHWvnL4mfsw+Pdd8QC+8WaFdqgvYJVuIbh5VtYkeOML8hyzEI8jHGcMozw2foaGa4ylDl38meNPKcqxc735Jdz87te/YX+LerX7S6b4ctLsqu4TwahE8JXru8wErjjJzwMCuu+EfwKsvgrcrq3im8t9R18XJjFpbbjDaSIclSWUB2G3kjI444r6M1P4Q6t4O019EsdJ1JoZ7VQz29nPvh3SAYIALErEFBDAgkZGcgjmNH+DHxH1/VZbrSfh1q06yyBpZpbJoeFwVCtJtUn5OCTwe+CK0qZpXdPlgjWnkGFclOdRNfccX4p+H958VdTvtW8TTTz3F5cyS3UyJuMhd+MkAAYyF3YJOcHjFfUf7A/7GM1npc+n+Nk0/VPC10qyW9reuwvNMlH/La3lAI2cOskMhVgPLwZMvXL+Af2S/ihcPbyalcRaajKrso3Svg8FdoOM9PXJzg8V9b/ALP/AMKp/BUAWw1C6ht25eKdVHXuQoGWPIJx1BrzZ4jEyTdVaHfLDYSnaNCVjsdN+EvgzwBrNtD4R08QAxKZgrEjJ57k4OO3bpX0N8JD/wAS1zIMBYckZ5bivKtL0q5nmFxcIGZyApxwMf5/OvWvh1biHQrspIFxbN17cda83BSjLFtpBjIP6qk3qfH3/BQKSGTQ9TdSqkIzALX4w/G5pL7xBeKi4BlYL6dSK/YX9vHUVXQ78NIvRlLZ/E/pX5F/EWxF7rt2CQf37AHHU/l6V6GUz/2mTOXNKTjh4Jnnum+B9fvNPW18K2CPJcyE3V1JIqhF7Dnrn2r034W+BfFnw9uk1DwnoNrJPd2gi1SWe8jLT/Nkgc8DPbHO0VieE4JbYNblWVGI8xVOOh+n+f5em+GfA+jXdt5tvAyO5y3OcE45wevp+Ptz71XFONrOx4eHw0Zppm74/tG+M3wpX4SfGKCOzTTrs3eh3wukaXT5GBDLwRmOTAyh4BAOQ2K+fR+zbokV7dafdeOIj5EfmSiGyc7l5xgkcj/9WOK9ovPAuuFUSWwMmxkdGU7sEBQBn04Jx3zmsW68B67ppFxa2rZjhETBjkkLuzn6liaIZhUejka/2ZSjsrHF+F/h9oHgC3+3eG2jvrmWIhHe6G5QF3kbSg7KTx6Y64rnPHGt6pq0Ei3FhGoJIYDJIzn+tduPDHiC1CRC1IeNAOh5wwYEeh+UVSfwDql+Q17a7Afv4TrzWixU07tnNUwNGOkTzfwn4QW1uGlMUgV2BaME7WOf84ru47GcWqs9sVPQAjGK6LTvA0Nggj2k7cEkrUup6UUhI2LgD5T3zWFXEqpI6cNhPZxOIuoFB2gH1zniitDUrIrwOmeTiitYzTRE4e8fXX/BLySZ/AEnh/VLcR3emX0lvdRyjDK+c4OevDfoK+/PA0RCxmPBU44xjgn1r4L/AGWNfTw/8e78R7BaeJYftOBL927ThkI7Fl5I5+6TX3d4CukkhCSsNzbT1JyvavjMbriOb+bU+5y2KjR9n2PYvCMXmKiFeqjIJznA6e3Su70axheMFVKsD1QZzj/61ed+FboFVZWBHGN3U9K9N8LTxOI8srrt4HTPFa4f3tDDH09Lk8ugaVcxYu7UHglmbAOCfpWDrvgHRrseWiKS7ElWI5649Oce/rXdRqohGAhPQhf61WvLJDGRCpDAEqwb/P8Ak16UbxPm6lHmPFtW+D3heSYj+zkzuA+X5SdvPO3Bx9T0rCl+FOlGQmGwyCgRUTAUdehx7Hnjr0Ne3T6E14+52+Rc7sKcd8EA44HfvV/TfBWnQDzPJAO77vUk9cfQ5zW8ZSkjn9lKL1Z5D4a+CD6jMJZLLyYz9z5ckg5BOD7Ec88MeOMV2GoeDNL8N6cthaW4yx3SMCCSxHU//W4r0qDT7a1t8Qxj13Kv+fT9a4nxZeZvnJUZBwR6dq5MdeFKx2YS7qpowdP0xYAHCd92Celd78LBDeW15YyJ1hYA49vWuHnuF8pEyc55x/Kuo+D13JHq7L5oxIrBcHleD+dcOASjiIno4qLlQbufCv8AwUVneysNYRT5Zi3j5j16j+tflhr6pc65PJJwfMOTjoa/T7/gppIw1jXbAhj+9kLMv1Pb3xj8a/MTX0+z6lIzgnPc+vP9a7cu91zt3FmTcqUL9kSeH9IaWZSoOS3Qtwetep+B9JktnX93iMKWzjr/AJ4/SvN/CjK90I3GckYbHv8A/qr2jwKVeONnUME4bLDPP/1z/nIrTE1WjHCUIyR0Njo8jW6ssYPI3kIDxnA/WpJfCdpqFt80GS4PzbeG9hXQ6bpolgUYCuBtxnBYYPQe/T2rXs9J2AEIGY/KP3ZBPQc/n1rgdaXc9ZYRPSx5hcfDax3q7RgAjgAcis29+HkQMjNFgqAecdK9mvdFiSN7gJwcHJUdcfy61h6zYwQRMWAwVwSPzOM9OaaxFTuCy6nfY8a1TwelurM0HAPBXrXG+I9MjtItroM85wMV6n4tuYYkZVAx2UnGBXmfjG7QqzIwJBPXsPTrXXh5SlLUxr4aFJaHAapAplIUgDJ4x2oqR1a+vzHGpJBxjsP85/SivZpySifN1bOZ9QfEb4J+Jv2b7y08e+GZ2fSdMvYrkadLcGR7cKQCFbAAXaSCuXOMHce32x8LPE1lqOkWet29wkkEyKwdTlXQjIIJ65Xn8RzXCfGzwdZ63oN7Y3Y8yGWJo2ibGeev6Zqh+ydqt0vwqstGnmVp9HlfTpwR08ltqA+/lbD/AMCr5Cc/bUubqj7KnF4evd7M+oPDmtrCQzydTkc8A+35mvRfCXiUqqpJIhfJA38AjHT8a8N8N6yYiYmnYbSNh3/n9K7zw7rjIqEXSgDjGenPTB560Yeo1LU761OFWndHt2namjrzKNzfdIbGDn68DFXBNC4ZTgbj8wzkNz/XNcD4e8RW67IzMGQqTxnJ9uOe3TnjNdPZavHdQho5QGUbhtPU/hXrUqnMfO4jDcj0Nu3kVYQiKAdm0bWB/L8v1qdL4A/cfcDnGcsBjGMjGe+eaxI9Qi8xkm2vtGXbbuAz1AP4imNq0IDPPOjZATI6YHTj6Guj2iWxwSw92bUurRujh8DkjIUZ49fwrhPF96fte6OTO30XgjvWrd64jId13Gg6tg5ye/f09u1cb4iv3v51ihYsZ2OAp6CvPxk3NWOnD0FB3GG8llZioOzIA966DwrrDaNc/a4owCqEHcehIxwawr0W+ntFDk4OAd3BHSuwu/B9hB4AHiKG9Xfjc4LdiTWeFoyc210Ouu4qKTW+h8Uf8FDNFTxLf399Cr7p9xxjrkc/yyPrX5i/E3w/c6XfSKVxt+bBGOD0r9V/2n9Q07WdLuLkzRgQOUB3csen8v51+avx2n0yXVrq2SVSWkZVZTnIPTH6V1YJv2jJzGmvq6t0POfB960l0uJjuVhjB/T9a91+HjRNCsZkPJHHfI7jP0/WvnnRkv8Aw94jS3ugNs7Ao/bPcfma95+H05xFkYzjnJ2n/Oa1xkLSucuWT5p2Z6to12bRQSCOF2b+g5IHX8K6O2vYipOGLFeADhemf1wPy/Echpl6iDzvMxnG4heG44q//aX2XLsQCTwhkx7Zxjjp+teZY+mgomrda7HCjSoclQVwWwRnt+H+Fcd4r8RxohLNkFcAsMdiPr1xS6trIttxeTcDxKyjOO35ck1wHirxOjFw85P91h0zz0x26VrTpczRc5whEy/FutCSVjHNu4+fqf8APNed+JNTad2IU4BIOOBjtWhr2tmbcTKQxBBA965W7umnk2Kp56169Cjyo+dx2JT0NbwTYwTXT6jePshjBaaRuNqAFmyf90Giq3im6bw98NtQML7ZrmFbZTjr5rAOP++FYfjRXdCk5K58vOonI/bP4gfsD/HHV9Skh8N+IfCt3absw3N5eXFvKQSMlohBIq8dg7fUVxmsfsoXf7MGm2lhqniWLU9Q1+4mvtRW1hZYIJAkUeyNmALjAHzEKScnaK+87Q+bORIcHygSByDyeR+Qrwr9tSyhe58NyMjHd9qG4DHeHjp71pmGRZfhMFOpSTv6nJgeI8zxeMp06rVr9EfOGm38tvetF/GpyuRx/wDWrtdA1SK2kVDNgsMjf298n+tcRqVrJYaibqJH+/gg9COPf+XrWxo940u3a4JUjcd30Pf/ADzXwyThI/T8LXU6Nj1fQdaDKcDjbyUPb3Pp/hXS6ZrMaoV3qI5SCwBB5/HoCf8APp5npOqMoSRHYbB1YHC8Y/Wuu0W+LYZdh39QgwBXXCo0TiIKSOzi1hSu+RpSOFVdnG4EHnsV/MUkmoOqtJbKF43MxfJIyOcDj/8AV0rP0uWWSMeUg3nnKg9RkAdevNXZoJWjMFvAQWA3OD0PHvW6m2tDyKijCWplanqM5lZSCzt/F1wcdfbpVK3ePTHOr3kfAXjJ4GcjP6Gum0zwRLcyec53k9WJIyTnDDA57VN4p+Htprmg3OjyStGjgokkX31ORhxnuDzjpThQlPVmEsXThJR+88c8ZfG74daJ4ot9H8UePtG066vZfK0+2vdRjhaeQ4wqByNzew5rL+JHxZ1nw34QuLeLVtyKxcxhgcAZ6fhg18Lftef8E0/Hni39oj+1PjiJ/EOmTymPSLuGSQRyQE5Crg/uZQeqg9ecsMV7xB8HNS+AvwGPh7UfGGq6tpsEOyxTXbhri5s1YHEPnPlpY1yAu/LKDtyQBVVKSpw5ubXqj06dak5Weq0seefG74xwXPge61RZG3s5ba+OW98V8D+PfiJa33idotX121t5biXFrFNMA0xzt+VSc9Rj617r+0D4+OgfDmW0mlD3FxMWihDk7vmJx9Oxx6/WvhJ/BC2/jFvGvia7murn7QJyZMZYg7go44A4wBwOlehlOGhKLbdjws6xTnOMY3Pe/EF3CNGtZ7kjzkkUxMG5OSK9V+HOpo9pHGZGHmKCuMcV85aPdeJfGOp2tzrCeXbxMDBb9ScDgmvdvAbvYRRxsy/J1bHU/wCcVWOhaGpnl9S1ZM9csr0CALEQw6AkbTg445+n6UzU9VIy3mAJu+YAcnv/AFzWJp+oKQZjllYj5AOCe1Vda1ZAAzhiWznH+eO1eWo+8fURrWiQ+I/EcrxNEZSpbgqR0GTgCuA8Sa15pJ3qMdcGtDxFrCncoZucAE4ORz+tcXqmpS8xHGW67RXo4elY83FYu2lyrql5ukLF2bBx196j0q1EtyZZQSqnJGah3LK6rGScn5stV+PbBbiNmOSRuwckn0r0acEfO4rEX0PpD9hL9hfwl/wUEvfFHwt8WeM73w8um6INR0vWLKBZvIvEmWNDLExUSReXJKGTcpPy4ZcZor6F/wCDf2xf/hPfiDrEiZWHRbOFmxwN8krD/wBF/oKK97A06fsPePkMXicRCu1F6H6wRxeRfMPMJb74OOq+mP1ryP8AbHs2fw9oGqK2THrP2dU4wd8Mjk/+Qsfj7Uv7L/7TvhH44aWunWeu2dzerHvgubNwYryLkiVAOQCAeGAx8y5DJIibf7UelHVfhDc3sMDSzabf2t1GFx8g81UkbA9IpJD6cUsZNYrATt2M8Cvq+Pg30aPlPxDpkaXTZIYN0PPA/wA8VQ04yKV8lgWPBIHX/PWuq1mya8sxOh3cbhgcH/6/+BrAWxRZdq4BPAIH3QehHvX5hUunqfreDmlE19F1HAHlrlTyykj5u3+frXWaJfoAscucZyoPBPt7HrXD2ivC+9clW7KOrf5/pW5pV/JEpZpCFUgjPoAeazjKzPTlNSien6HdxzFVkkVmbhWYdeSf5Z5rs9Jis0UFRklRtQfXPTv1/KvKdC8QlOTMB6Ecj1rrtG8WwwooM4LMPvEYwa6qFZJ6ni4um5bHotpJFHHuJXOFJG0cYzimXbxMhZCc4GABwSa5KPxh5uNzj73ykdV/x60+TxHcylUhRmP8Oxc5GTzXZ9ZitjyHhajZJ4lsbSeEuLdJHyduUB29ieenPevmH9v/AFO20P4WvocAWS4nK7QVzhsjgH6Z/WvpHUb4aZD/AGj4i1W1sIVJ+e9uVjAOe+T618l/tm3ej+O76K68M/EjQrqOxicy2n25QxYfxZPBXg+1ZTrSlud+DwslNPXQ+J9Z/Zi1fxvpNzdySSm8jR5FiLbge2APXrXz14u+EcmjaxLb3dkRLA+1kYdD06fhX6M+Fr3w18PIZdV8d61p1m0EAk8j7WjsQwwGG0kMrdiOD0FfOn7SfjX4H+NPF/27wprcP2qXJuEEDhGfAxk4AB55PTNdGCxVanPla0N8Zl8asOdbnz34d8HxWKCcpyAMZ9K7HRoliIU/dwPwp1zZ2ycWUiSIc/MpyCPqPpTUvVssNI38W0c9a6KlX2u5wU6Los6C01AwwhwwOBjjj14/r+FYetaowRhK+0Nnec4/H8aZJrtrt8xZlOSABuyM5/z+dc54n1zzEZ4yMBvlHt/n+VRSp3kdc69qZW1bVC7MwX5d2RzWBcyFn3DPPXnoKLi885tmeMcZPvSRgMSx5A6V6lOFjwsRiHIdBGYgZHIJ7DNSI5kcKDgk87hUMrMAGUfxfdNPso2nuQQAdufvDIH09a6YrU86c3fU/Vv/AIIAeBLyz+FXjv4jopZLvVre0TCjk20LSnH/AIEr65yOncr1T/gkva6J8AP+CfkPjjxKcLqN/d6wts5CsZEbyIkPHyhvIGGOfvDarMVBK9OElCCTPnKylKq2fAHh74p/G79jXx9Bf+NfEGqNbSyQ6kdRtFV1vVK8XiO6hPtQWRZJQWEV4CS8hkInl/Vj9lv9qr4e/tsfBnVbLT9Uhe6Fo+n6t9lkJB82N0WdOBlZAGdSOOOpwapftb/8E8fh38cPDN/N4J02003UJ7dlOnvGosbh2zuJQA7GbdhiAVIVSyEqjL8EfsDfDz4zfsEftvWngTxb4f1Cy8PamBZawnlvJb6fb3Em2J3kVVTat15arMRtKSnIjLYJCjVw9XXWL0fzNnVpV6XMtJL9D6rsGurYS6VqKKt3ayNDcJnpIjbXH5giqepWUOTIjZ5wqnqB/wDqNdt+0x4PuPh/8Uv7dWFl0/xCn2hHyAguVwsqY7ZBRv8AgR9OOUeQ3MAl53YwJOpJ+n0r8/zDDSwuKlTfRn6JlmJjisPCpHsZyiJpNu0Bj93a3Q9P8/hV6CJri1JCA5HLg/j/AJ+lJLAkkXmRsMoAfTd1wf8APpTY7iOEknGQAvy8+oH04rznue1GStoVZfE02hr5Dy7Fj6MSfz9+P5ViD9qnwTpWuroNz4hto5Nu6TfOMRrwOT7jPHPTnA5qr8SrLU9V0aWHS5m87aQPmOc+3614h4Y/4J16b8StYvvGPxC8SeILKe4+aCXR71IvLweQQ6Mr5HBzwMD1q6FP2lSzdiZVYRV5n0Xq/wC3D8BPB9v5p8TSapdIq4tLKPfgnoSchT0x1OK8r8cf8FLfHeubtP8AAFhb6Rbuw/0zO+YZbPQ4A4/lXk3ir/gnVf6TPfTeG/jfc3FpC7tBHc6TifZt+UErIBIxJXlFHBfgbRna0f8A4JTap4jXzLT496lEzQTSGJrVP4Q5Ck7uc425GPmYeuK9qngaKS5dWd2HWWqPNP8AE47xn+0h4y12dtd8QeL7+8uMnDXE5ZhhThRk4U+n1rg/EnxWtzavLaaw7zySqcbjlf3YBPXP3sj6EA16544/4I/+ObSyuLnTPjPeSLYySJKtzZ48xI442BGHHUuijjqR714N4o/YA+Lfh/UxpkPxCMyyyohlkgKhBJKiKWO7GfnQ4rvp4SMY6o7ZVaVZNUHe3RaHm3xN8fatqdytgLyVfsMKQkecW34BbjnuG+gxXD3XiFLQtJLL8ygb2X1OOvtXqf8Awwh8ZPFTXUln44hdo1Vtnkkb3LKgX7395kPsFY9q4vxh+xr400CFn1DxjJIVwd0SRgOcKScYJxyRyexrvhSgloeRiKGNl7yj+Jz9t4+nilC2Nw0agKeCRz361qQ/E23kjeO8UHJByhOSe38jXD6n8INX0e4x/wAJFdMerLuU9++Rx9Pasi/8Ma5Zg2lrrty7lgOVQ4OB7f5zWjwmHqas+XxWIrUJNSidzq3xJ0jS2+2T6lHAJTgtI2wZPGf8/Wmy66b1POhcOrgFSpyD75/X8a4iy+E+nzTm+12Wa8m4GbmTcF5zwvQAV09lpi6eiwQg+Wowgx2rKdGhTXuPU86NWrNu5oxZz82Mk54q0qgKFbjd6VBahcDAyOzVLI20gMw5PzcdPpSj8RjN6iE+Zkgn5ewroPht4bv/ABV4p03w1pEDy3Gp3sUEMSKxLu7bQMKCT17DPPeudLxs21ySF54P+fevsr/gk/8Asyaj8R/GmofHTXdEnfRPC8QS0ljjyJr6TAVVyMEojbjzlS0Z711U6Uq0rI48RVjShzM+v/Gvx98E/Az4BaBpP9p2ulQ+AtHtoYNQlv4oYriba1ul4zou6N4Jlu1UfM6yu23ezIpK+V7rwx4L/aQ/bUbTfjct1B4Z0DT7We/0eyhK2V9rl49w8bzRyqfLCgsreYjsk8PlESJJuYq5y97Q4IwVtT9tWGTyOQT/AJ9qwL34W/DvUPEMnizUPB+nz6hLGIpLieAOCoyOhG0kg4JwCQMEkAAdDtHVlwc96RgScdB9K+iTaR4Vkcn8Zvhdp3xf8AXXhC+KpccT6ZdZ5t7hQdjg9gclSB1V2HWvjOzuNY0DV7vwt4htza31hcNDcwuB8jqcH2I9D0OQR1r73wOARnnGCOCMV4r+1b+zdN8TLf8A4WN8P7dB4msocXFuWA/tOFR90548xeiscZHynggj5zPsreNpe0pL34/ij6TIM2WCreyqv3Jfgzwa2u41bdGTySRkdM96r3Eci3ICDcSOFbsf/wBdZGla8JppLa9SSCeKRo5YZkKvC6nDIwPIIwQQeQRg81sWNzE22LzACSAQeQO3r7Zr84qRlTlys/TKUlON0GlWEUtyFY71DAncO3ofeu9sLKyttKEcESuB8wUdq5axgIl2xkEDkZ5Hf/61dJYkt+7jLBtgyCOMdqcHysmtBz1PNfjHo95p0TanpUQWRXOCcYYDPt6ZFeVWf7RF74cuXiv9QMLoSBFs475ONvJ6nngke1fTWuaBB4ig+zzxLk8AhSTnvXgHxs/ZEvvFPmSaWjbiDsdM57kHK/jXbRq1E/dZ14LFUaK5Kquhs37etrZRC1u9UjeNnDTwPGMu24M3zYzyRGcn+6B3ryPxt+014a1yGWaLWGWQiIkFscqQT27lU9fujHSvOfiX+xr8d9BLS6ZLdSxrzl4ScDsB36HH414t4n+Dfx70WR2u9JuAq5LMkLnvjnn2r1KVarPeSOxZlgaHvKnZ+R9CeHv2htK8JeHLuGK8Eok3l0Ln58L8rZwSMOqtwc/KCCOK8M+K/wActKvWfyL7gMGbBxg4xwOp4AHsPWuBufD/AMSfM8u5srgSA7sFOcewOQRjNZz/AA68RyOWutPk3HjdICcnPv8AUe1d9KqorWRw4viFODjRp6sy9W8Xvqs0iwI+GAy3pnpj2qhFbKW+QFnLDfITn8ua6aH4baso3TRFPm5wuO3XHvVhfCEtj8giCkjJyOlaPFRWiZ8lUjXxM+aoYEdo5GXJ3EfNgU5rcogwBxxmte6sNnBBAGe1UrwqrcdMcDHWlGo5MiUIxRSRDGxjVuOoBpTmXcsaZPGeegqRLVvvFiOfmrf8H+CNQ8U3yafaLGihTJNPPIEjhQAlpHdvlVQM5JIAHU11wSuu551aSjdkvwY+D/jD42fEXSfhl4H0aW+1LVr1Le1tousjMeMknAHU5OABkkgAmv6Af2fP2O/AXwL/AGW7b9maxCmGbSZINev7f5Hu7qeMrcTBgM8kkJnlVVASdtcV/wAE9/8AgnT4L/Ya8JDUtShs9T8f6hblNW1tIjizjYKTaQ5JyoYHdJ8pck8AAKPo9YyTk9evJr63C4SGEoc0viZ8fjMZLF1rLSKPyh/aC/4JD/tQfD34j+IfiB8JPGei6jYtpTFX1C0R57lWlZvljMLotyGZcyfxbWbdkgAr9X5NO067l8+6sYXkCbPMaME7fTOM456fpRWaw+GethfWsQtDTHTrn1pAc8n+dJyOxoBC9DnbSb0MwOTyaQ57fr/n+tKM9ume9IE3NkH8KS7gtz5X/bh+F8F1490/xL4LtobLVbzTne7LDbDfujBQsmPuvggeZzwoByMEeFeHfGc1rqU+ga/BLZX0GBJaXI2yIfXHQg84YZU44Jr6k/bDuNnijwzADyLa6LDHOC0Qz+hrx7x38OfDfxBsYrXWreRLmHL2WoWj7Z7btlGxx2+VgVOOQa/Oc9jT/tKcUj9NyCtU/s2EmM0nUYpEj2Sb9xHzA568dfw6iul0y+EUq78Yx8xJyDnoa8XS98ZfCnUE0fxvtlsZpTHYavEv7mXOAqSZ/wBVJ0OGGG/gLYIX0Dw34ltr/bJBdAh85O4kZwc/yrwnTcT34VFM9Q0mJBKBkDglS+MZ74rt9C8O6HqaJFMil8ZdcHkEYIz/AJxXmeka1HNHk4OOozg5yK6XSPFS2qgmfqMDPTkn0/KurC1oU56o5MVQqVV7rO3uPhd4VvFk821ieNcjJUHB6A4PBGD/AFrzn4wfBv4d6hI80GiW+9owWRFA2gkDAAHB6+w6963tV+KUVnYkvKPlUlTHjKnBGfb8eK8c+IHxwN20ifagxdudrdDnnr05A7etehVxdFxtGJx4bLsU53b0PLviF8C/AMzyXcOjxFo2IyFU7uOCMfQjPfjsa8P8dfC3wvpgd7eyiVduRnH3iQTnHvx+FfQmp+LFu9Pkd1z8rMpY8jgfmK8E+LXiRLSaaASEpkgbTgj1XOcEfyrz+eS2Pfp4SEY6o8h8V+HdHs3cw24IDEoMc46Eda8z8UWdpCNka8A9PQZP+PSu18W+KgWkYyZGSN39K828RawsjEMTgnI9/pXXQjUlJXOPE+zhHQ53VJBEpyQSeh9c1jyW5LDJJweT6Vdu5XnmyAGIOF9MUzUtW0DwRYrq/id2Ysd1tp8ZxNct2xkfKvXLHgds9K9qlaC7s+eru6LNlpFlZafJ4h8SXy2mnW7fvLmXPJ/ur/eb2GSfSq3hjx0fiH8QdD8K6fZvaaHNrdrGtnx5l1++X5piOpzjC8hfryPOfFvjXXfHmoJd6wypbQcWljDxDAvcAcfN6t1PsOK6b4KXS6X8RvDupzN8ltrlnKc/3VnQn9K7KUGmpTZ5Nd80Gj+pO5jZrmRnOSXPIqMIBxk5+lT3I/0qRcHhzzj3phX+6M4r62VRzirnxzilJjQOME8HuaKcAAcHp/KioTuBOT0J/OjJ7/hQ3UiioAUcg/4Uhxk55HuaXuB9KV/9YRTXxIGvdbPnH9qu8/tL4w2OmRuGFhoke8A/dkd5GI/752Vy1pGQqRTKCpb5gR064x69q0/jySfjlr5J6G3A9h5MVZ03+tz/ANNR/WvzDN5upmVRvuz9UyemoZbTiuxl69o9tfWE2nXdvHc2s0bRyxzICsqEfdYEEFSM8HjpXjureDfE/wANL06p4JjnvtKzmTSppS09sMjiFn++oHRGO4AEAtkKvulySLg4P8CiuP8AFQBlmUjjynOPf1rzIza0PViupzngv416TqsA/wBJUMrbHjY7WSReqspA2nP8J5HQ10n/AAs2CNN8V6nIORu+6PyrwP45xx6f4y8P3tgggmu5nW6lhG1plCLgORyw9jUdjd3ZsC5upCVZtp3nI4FNU1LW5003rqj1rxX8VIp0bF/tw2D82R047df8a8l8WfEm1WQtHLhg2Wyc45Hv7fjiuf8AF17e/YGf7XLkoxJ8w5NeaeJry7ffuupD8i9XNbUqK7nRKryrRHqV58S2NqUa56xnDr1Uen6V498WfG32pHlF1lRkBTJz3/rUkM832KL983Kc/MfSvOviNPMflMzEGXkbj6V00qa57GNavJUdDl/EXiMzyNGJeASSePyxXMzNdag4EaO5JGMfXrT7sk3aKTken/AjWZ8Zp5tP8IKbCZoN86K/ksV3KeoOOo9q9WileyPnq9SThzMzvEfxB0nwurWemGO/1AHGesMB/wBo/wAZ9unr7+dalqF9rWoSarq1681xI3zyucHB7ADoPYUsyqsUe1QMxnOB7mmQgFuRXp0qcYq/U8WdSVR6kttECA3QEdMf5zXRaBJLbP58DbGTDq3cEcjFYltzHzW3ooBuQpHG08fhWl76mUl7p/U34U8Q2njDwrpfjDTmDW+r6bb31uc9UmjWRf0YVeYc9x6gCvOP2MpZJv2NfhFNNIzu/wAL/D5Z2OST/ZsHJPevSF5Q59K+mi70YvyPjqitUaGgnO0DH1opcDbnHaikQf/Z;" parent="1" vertex="1">
          <mxGeometry x="280" y="62.02000000000003" width="44" height="55.96" as="geometry" />
        </mxCell>
        <mxCell id="tRmzfT7c8AYAd1QJYqpU-14" style="edgeStyle=orthogonalEdgeStyle;rounded=0;orthogonalLoop=1;jettySize=auto;html=1;entryX=0;entryY=0.5;entryDx=0;entryDy=0;" parent="1" source="tRmzfT7c8AYAd1QJYqpU-10" target="tRmzfT7c8AYAd1QJYqpU-7" edge="1">
          <mxGeometry relative="1" as="geometry" />
        </mxCell>
        <mxCell id="tRmzfT7c8AYAd1QJYqpU-10" value="Image" style="text;html=1;align=center;verticalAlign=middle;whiteSpace=wrap;rounded=0;" parent="1" vertex="1">
          <mxGeometry x="120" y="80" width="80" height="20" as="geometry" />
        </mxCell>
        <mxCell id="uH0Ve5aKy0lYgf-GEaph-3" style="edgeStyle=orthogonalEdgeStyle;rounded=0;orthogonalLoop=1;jettySize=auto;html=1;entryX=0;entryY=0.5;entryDx=0;entryDy=0;" edge="1" parent="1" source="tRmzfT7c8AYAd1QJYqpU-5" target="uH0Ve5aKy0lYgf-GEaph-1">
          <mxGeometry relative="1" as="geometry" />
        </mxCell>
        <mxCell id="tRmzfT7c8AYAd1QJYqpU-5" value="Image Labels" style="text;html=1;align=center;verticalAlign=middle;whiteSpace=wrap;rounded=0;" parent="1" vertex="1">
          <mxGeometry x="120" y="150" width="80" height="20" as="geometry" />
        </mxCell>
        <mxCell id="uH0Ve5aKy0lYgf-GEaph-1" value="{&#39;age&#39;: age label, &#39;gender&#39;: gender label,&amp;nbsp;&lt;div&gt;&#39;race&#39;: race label, &#39;centre_dist&#39;: distance value,&amp;nbsp;&lt;/div&gt;&lt;div&gt;&#39;space&#39;: area value}&lt;/div&gt;" style="text;html=1;align=left;verticalAlign=middle;whiteSpace=wrap;rounded=0;" vertex="1" parent="1">
          <mxGeometry x="280" y="150" width="350" height="20" as="geometry" />
        </mxCell>
        <mxCell id="uH0Ve5aKy0lYgf-GEaph-2" value="{&#39;age&#39;: {Age Confidence Dictionary},&amp;nbsp;&lt;div&gt;&#39;gender&#39;: {Gender Confidence Dictionary},&amp;nbsp;&lt;/div&gt;&lt;div&gt;&#39;race&#39;: {Race Confidence Dictionary}}&lt;/div&gt;" style="text;html=1;align=left;verticalAlign=middle;whiteSpace=wrap;rounded=0;" vertex="1" parent="1">
          <mxGeometry x="280" y="220" width="350" height="20" as="geometry" />
        </mxCell>
      </root>
    </mxGraphModel>
  </diagram>
</mxfile>
